<svg width="512" height="512" viewBox="0 0 512 512" fill="none" xmlns="http://www.w3.org/2000/svg">
<path d="M393.432 262.67C403.215 267.738 410.89 276.517 418.594 284.223C420.683 286.308 422.787 288.376 424.893 290.443C435.848 301.305 443.862 311.05 445.375 326.938C444.605 342.597 436.41 352.046 425.747 362.673C424.717 363.71 423.689 364.747 422.66 365.786C419.886 368.582 417.103 371.368 414.316 374.152C411.983 376.486 409.654 378.823 407.325 381.161C401.826 386.679 396.32 392.188 390.809 397.692C385.14 403.354 379.486 409.031 373.839 414.715C368.973 419.612 364.098 424.499 359.214 429.378C356.305 432.285 353.4 435.196 350.505 438.116C347.781 440.862 345.045 443.596 342.3 446.321C341.3 447.317 340.304 448.318 339.313 449.323C331.376 457.368 323.133 464.031 311.406 464.177C310.501 464.19 309.596 464.203 308.663 464.216C307.69 464.223 306.717 464.231 305.715 464.238C304.703 464.246 303.692 464.254 302.65 464.263C300.507 464.277 298.365 464.287 296.222 464.295C294.045 464.307 291.868 464.327 289.691 464.357C286.532 464.4 283.374 464.416 280.215 464.426C279.256 464.443 278.297 464.461 277.31 464.479C267.07 464.447 257.389 461.295 250 454C242.217 444.808 239.529 436.137 239.566 424.227C239.561 423.222 239.556 422.218 239.551 421.183C239.544 419.07 239.545 416.957 239.554 414.845C239.562 411.641 239.534 408.438 239.502 405.234C239.5 403.169 239.501 401.104 239.504 399.039C239.493 398.096 239.481 397.153 239.47 396.181C239.566 386.877 241.607 379.239 248.026 372.306C249.232 371.002 249.232 371.002 250.462 369.672C254.628 365.286 258.855 360.964 263.119 356.673C264.097 355.684 265.076 354.696 266.054 353.707C269.228 350.503 272.406 347.304 275.586 344.106C276.13 343.558 276.674 343.011 277.235 342.447C282.379 337.272 287.525 332.099 292.676 326.931C299.224 320.361 305.763 313.78 312.288 307.186C316.901 302.525 321.526 297.877 326.159 293.236C328.916 290.474 331.668 287.707 334.407 284.928C336.983 282.315 339.573 279.717 342.174 277.129C343.567 275.736 344.945 274.329 346.322 272.921C358.607 260.775 377.014 255.195 393.432 262.67ZM374.281 293.012C373.693 293.565 373.106 294.118 372.5 294.688C371.819 295.322 371.139 295.956 370.438 296.609C365.586 301.368 360.77 306.159 356 311C360.178 315.986 364.531 320.667 369.148 325.246C369.806 325.902 370.463 326.558 371.141 327.234C373.216 329.304 375.296 331.371 377.375 333.438C378.793 334.851 380.211 336.264 381.629 337.678C385.083 341.121 388.541 344.561 392 348C393.099 347.065 394.198 346.129 395.295 345.192C396.213 344.41 396.213 344.41 397.149 343.612C399.993 341.135 402.695 338.528 405.375 335.875C405.907 335.363 406.44 334.852 406.988 334.324C410.659 330.748 410.659 330.748 412 326C411.033 324.204 411.033 324.204 409.355 322.559C408.706 321.864 408.057 321.169 407.388 320.453C406.6 319.643 405.812 318.834 405 318C404.544 317.526 404.087 317.052 403.617 316.563C400.445 313.268 397.239 310.01 394.01 306.77C392.299 305.049 390.598 303.316 388.896 301.584C387.803 300.484 386.708 299.384 385.613 298.285C385.109 297.769 384.605 297.252 384.085 296.72C379.766 292.223 379.766 292.223 374.281 293.012ZM328.142 338.711C327.596 339.258 327.049 339.805 326.486 340.368C325.912 340.939 325.338 341.51 324.747 342.098C322.839 343.996 320.935 345.898 319.031 347.801C317.712 349.117 316.393 350.432 315.074 351.748C312.305 354.511 309.538 357.276 306.772 360.043C303.223 363.592 299.666 367.135 296.108 370.676C293.38 373.393 290.657 376.114 287.935 378.837C286.625 380.145 285.314 381.451 284.002 382.756C282.168 384.581 280.34 386.411 278.514 388.243C277.967 388.784 277.421 389.325 276.858 389.883C270.968 395.822 271.783 401.342 271.76 409.342C271.75 411.361 271.719 413.379 271.688 415.398C271.682 416.677 271.677 417.956 271.672 419.273C271.663 420.443 271.653 421.613 271.644 422.818C272.039 426.345 272.831 428.212 275 431C279.969 432.656 285.138 432.225 290.342 432.24C292.361 432.25 294.379 432.281 296.398 432.313C298.317 432.32 298.317 432.32 300.273 432.328C301.443 432.338 302.613 432.347 303.818 432.356C309.945 431.67 313.63 427.655 317.8 423.427C318.357 422.871 318.913 422.314 319.487 421.741C321.315 419.911 323.136 418.075 324.957 416.238C326.227 414.964 327.498 413.691 328.769 412.417C332.106 409.073 335.437 405.723 338.766 402.371C342.168 398.949 345.575 395.532 348.982 392.115C355.661 385.416 362.332 378.71 369 372C364.827 367.024 360.485 362.337 355.887 357.754C355.232 357.098 354.577 356.442 353.902 355.766C352.531 354.394 351.158 353.024 349.785 351.655C347.672 349.548 345.566 347.435 343.459 345.322C342.123 343.987 340.786 342.651 339.449 341.316C338.817 340.682 338.185 340.048 337.533 339.394C332.86 334.341 332.86 334.341 328.142 338.711Z" fill="#102C54"/>
<path d="M316.938 68.6875C338.213 86.2946 352.431 109.853 355.723 137.437C357.948 166.02 350.791 192.893 332.453 215.145C314.971 235.494 290.181 249.106 263.179 251.221C232.696 252.457 207.124 244.47 184 224C182.956 223.082 182.956 223.082 181.891 222.145C162.994 204.419 153.18 178.764 151.797 153.254C151.454 126.267 159.616 100.245 178.489 80.5017C179.979 78.9866 181.485 77.49 183 76C183.835 75.166 184.671 74.3319 185.531 73.4726C221.172 39.6251 278.687 39.2364 316.938 68.6875ZM206.309 99.7383C205.166 100.858 205.166 100.858 204 102C203.372 102.592 202.744 103.183 202.098 103.793C189.819 116.406 184.608 135.343 184.785 152.469C185.868 170.262 193.718 188.077 206.875 200.32C223.704 213.623 241.567 219.774 263 218C280.774 215.636 296.515 206.216 308.055 192.598C319.622 177.151 325.217 158.801 322.504 139.465C318.769 120.412 309.656 104.345 293.895 92.707C265.794 74.4639 230.978 76.4545 206.309 99.7383Z" fill="#18181B"/>
<path d="M205.568 281.554C209.287 281.563 213.004 281.533 216.723 281.502C219.112 281.5 221.501 281.501 223.891 281.504C224.99 281.493 226.089 281.481 227.221 281.47C233.65 281.528 238.667 282.218 244 286C248.643 290.881 249.357 294.967 249.281 301.496C248.725 306.45 245.977 309.139 242.375 312.312C238.936 314.756 237.17 315.128 232.994 315.158C231.425 315.173 231.425 315.173 229.824 315.189C228.684 315.196 227.545 315.203 226.371 315.211C223.949 315.239 221.526 315.268 219.104 315.297C215.293 315.338 211.482 315.375 207.671 315.401C175.85 315.643 149.318 319.761 126 343C125.242 343.735 124.484 344.47 123.703 345.227C108.351 361.055 100.618 383.316 100.557 405.144C100.787 412.888 103.567 417.975 108.313 423.875C116.01 429.962 123.389 431.114 133.125 431.142C133.799 431.145 134.474 431.149 135.168 431.152C136.619 431.16 138.07 431.165 139.52 431.169C141.82 431.176 144.12 431.192 146.42 431.21C152.955 431.262 159.49 431.31 166.025 431.326C170.034 431.336 174.042 431.365 178.051 431.407C179.572 431.42 181.094 431.425 182.616 431.422C184.746 431.42 186.874 431.442 189.004 431.47C190.818 431.479 190.818 431.479 192.668 431.488C197.794 432.276 200.866 434.807 204.375 438.5C206.773 443.665 206.754 448.4 206 454C203.692 458.972 200.735 461.345 196 464C193.226 464.38 190.855 464.549 188.09 464.518C187.32 464.525 186.55 464.532 185.756 464.539C183.221 464.556 180.687 464.545 178.152 464.531C176.376 464.534 174.6 464.538 172.823 464.543C169.1 464.549 165.378 464.54 161.655 464.521C156.916 464.499 152.179 464.512 147.44 464.536C143.769 464.55 140.098 464.546 136.427 464.535C134.682 464.533 132.937 464.536 131.192 464.545C113.43 464.62 97.561 460.941 84.1992 448.395C72.5445 435.705 66.5868 421.279 66.6875 404.062C66.6931 403.049 66.6988 402.036 66.7046 400.991C67.2394 367.447 82.2567 338.125 105.764 314.747C112.268 308.499 119.169 303.452 127 299C127.634 298.64 128.267 298.279 128.92 297.908C153.29 284.361 178.017 281.456 205.568 281.554Z" fill="#18181B"/>
</svg>
